<svg width="43" height="43" viewBox="0 0 43 43" fill="none" xmlns="http://www.w3.org/2000/svg">
<mask id="mask0_125_320" style="mask-type:luminance" maskUnits="userSpaceOnUse" x="0" y="0" width="43" height="43">
<path d="M42 42V1H1V42H42Z" fill="white" stroke="white" stroke-width="2"/>
</mask>
<g mask="url(#mask0_125_320)">
<path d="M21.6602 34.0977C21.6602 34.009 21.5887 33.9375 21.5 33.9375C21.4335 33.9375 21.3768 33.9777 21.3525 34.0352L21.3398 34.0977C21.3398 34.1863 21.4113 34.2578 21.5 34.2578L21.5625 34.2451C21.62 34.2208 21.6602 34.1641 21.6602 34.0977Z" fill="white" stroke="#00004D" stroke-width="2"/>
<path d="M39.3887 26.5391C39.3887 28.8579 37.5083 30.7383 35.1895 30.7383C32.8706 30.7383 30.9902 28.8579 30.9902 26.5391C30.9902 24.2203 32.8706 22.3398 35.1895 22.3398C37.5083 22.3398 39.3887 24.2203 39.3887 26.5391Z" fill="white" stroke="#00004D" stroke-width="2" stroke-miterlimit="10" stroke-linecap="round" stroke-linejoin="round"/>
<path d="M12.2617 40.8164H0.839844V39.1367C0.839844 35.4263 4.10012 32.418 7.81055 32.418C10.079 32.418 12.3365 33.5417 13.5526 35.2634" fill="white"/>
<path d="M12.2617 40.8164H0.839844V39.1367C0.839844 35.4263 4.10012 32.418 7.81055 32.418C10.079 32.418 12.3365 33.5417 13.5526 35.2634" stroke="#00004D" stroke-width="2" stroke-miterlimit="10" stroke-linecap="round" stroke-linejoin="round"/>
<path d="M29.4473 35.2634C30.6634 33.5417 32.9209 32.418 35.1893 32.418C38.8997 32.418 42.16 35.4263 42.16 39.1367V40.8164H30.7381" fill="white"/>
<path d="M29.4473 35.2634C30.6634 33.5417 32.9209 32.418 35.1893 32.418C38.8997 32.418 42.16 35.4263 42.16 39.1367V40.8164H30.7381" stroke="#00004D" stroke-width="2" stroke-miterlimit="10" stroke-linecap="round" stroke-linejoin="round"/>
<path d="M12.0098 26.5391C12.0098 28.8579 10.1294 30.7383 7.81055 30.7383C5.49174 30.7383 3.61133 28.8579 3.61133 26.5391C3.61133 24.2203 5.49174 22.3398 7.81055 22.3398C10.1294 22.3398 12.0098 24.2203 12.0098 26.5391Z" fill="white" stroke="#00004D" stroke-width="2" stroke-miterlimit="10" stroke-linecap="round" stroke-linejoin="round"/>
<path d="M27.3789 23.1797C27.3789 26.4265 24.7468 29.0586 21.5 29.0586C18.2532 29.0586 15.6211 26.4265 15.6211 23.1797C15.6211 19.9329 18.2532 17.3008 21.5 17.3008C24.7468 17.3008 27.3789 19.9329 27.3789 23.1797Z" fill="white" stroke="#00004D" stroke-width="2" stroke-miterlimit="10" stroke-linecap="round" stroke-linejoin="round"/>
<path d="M21.4697 2.18352L19.6531 5.89814L15.5916 6.48772L18.5311 9.35242L17.8374 13.3979L21.4697 11.4881C22.8344 12.2054 23.7768 12.7009 25.1029 13.3979L24.4083 9.35242L27.3477 6.48772L23.2863 5.89814L21.4697 2.18352Z" fill="white" stroke="#00004D" stroke-width="2" stroke-miterlimit="10" stroke-linecap="round" stroke-linejoin="round"/>
<path d="M35.717 16.3423L38.3029 17.7012L37.8091 14.8222L39.9011 12.7822L37.0096 12.3623L35.717 9.74197L34.4237 12.3623L31.5321 12.7822L33.6242 14.8222L33.1303 17.7012L35.717 16.3423Z" fill="white" stroke="#00004D" stroke-width="2" stroke-miterlimit="10" stroke-linecap="round" stroke-linejoin="round"/>
<path d="M7.16236 16.3423L9.74824 17.7012L9.25441 14.8222L11.3465 12.7822L8.45488 12.3623L7.16236 9.74197L5.869 12.3623L2.97742 12.7822L5.06947 14.8222L4.57564 17.7012L7.16236 16.3423Z" fill="white" stroke="#00004D" stroke-width="2" stroke-miterlimit="10" stroke-linecap="round" stroke-linejoin="round"/>
<path d="M30.7383 40.8164H12.2617V39.9766C12.2617 38.2549 12.7329 36.6432 13.5526 35.2634C15.1634 32.554 18.1196 30.7383 21.5 30.7383C24.0514 30.7383 26.361 31.7721 28.0323 33.4443C28.5757 33.9876 29.0519 34.5982 29.4474 35.2634C30.2671 36.6432 30.7383 38.2549 30.7383 39.9766V40.8164Z" fill="white" stroke="#00004D" stroke-width="2" stroke-miterlimit="10" stroke-linecap="round" stroke-linejoin="round"/>
<path d="M24.7191 35.0593C25.6177 35.6497 26.3459 36.4795 26.8112 37.457L24.7191 35.0593Z" fill="white"/>
<path d="M24.7191 35.0593C25.6177 35.6497 26.3459 36.4795 26.8112 37.457" stroke="#00004D" stroke-width="2" stroke-miterlimit="10" stroke-linecap="round" stroke-linejoin="round"/>
</g>
</svg>
