<svg width="47" height="47" viewBox="0 0 47 47" fill="none" xmlns="http://www.w3.org/2000/svg">
<g clip-path="url(#clip0_125_310)">
<path d="M9.82224 17.4414C9.82224 25.034 15.9992 31.211 23.5918 31.211C31.1844 31.211 37.3613 25.034 37.3613 17.4414C37.3613 9.84881 31.1844 3.67188 23.5918 3.67188C15.9992 3.67188 9.82224 9.84881 9.82224 17.4414ZM23.5918 5.50782C30.1721 5.50782 35.5254 10.8611 35.5254 17.4414C35.5254 24.0218 30.1721 29.375 23.5918 29.375C17.0114 29.375 11.6582 24.0218 11.6582 17.4414C11.6582 10.8611 17.0114 5.50782 23.5918 5.50782Z" fill="#00004D"/>
<path d="M15.0905 15.8048L18.6487 19.3107L17.8301 24.238C17.7731 24.5811 17.9147 24.9268 18.1962 25.1312C18.4773 25.3356 18.8499 25.3632 19.1586 25.2033L23.5918 22.9012L28.0246 25.2033C28.3308 25.3621 28.7034 25.3374 28.987 25.1312C29.2685 24.9268 29.4101 24.5811 29.3531 24.238L28.5345 19.3107L32.0927 15.8048C32.3405 15.561 32.429 15.1981 32.3215 14.8671C32.2139 14.5365 31.9288 14.2952 31.5849 14.2432L26.6469 13.4999L24.4126 9.03156C24.2573 8.72067 23.9393 8.52417 23.5918 8.52417C23.244 8.52417 22.9263 8.72067 22.7706 9.03156L20.5363 13.4999L15.5983 14.2432C15.2544 14.2948 14.9693 14.5365 14.8618 14.8671C14.7542 15.1981 14.8431 15.561 15.0905 15.8048ZM21.2811 15.2444C21.5766 15.1999 21.8319 15.0145 21.9656 14.7474L23.5918 11.4947L25.218 14.7474C25.3517 15.0145 25.607 15.1999 25.9025 15.2444L29.4966 15.7855L26.9065 18.3368C26.6939 18.5465 26.5964 18.8467 26.6451 19.1414L27.2411 22.7276L24.0146 21.0523C23.8822 20.9835 23.737 20.949 23.5918 20.949C23.4466 20.949 23.3013 20.9835 23.1687 21.0523L19.9421 22.7276L20.5381 19.1414C20.5872 18.8467 20.4897 18.5465 20.2767 18.3368L17.687 15.7855L21.2811 15.2444Z" fill="#00004D"/>
<path d="M24.5098 0.91797C24.5098 1.42501 24.0988 1.83594 23.5918 1.83594C23.0848 1.83594 22.6738 1.42501 22.6738 0.91797C22.6738 0.410935 23.0848 0 23.5918 0C24.0988 0 24.5098 0.410935 24.5098 0.91797Z" fill="#00004D"/>
<path d="M19.2655 0.540994C11.5434 2.51212 6.15036 9.4618 6.15036 17.4413C6.15036 22.3973 8.23408 27.0671 11.892 30.3743L6.36156 40.1209C6.18371 40.4347 6.20594 40.8234 6.41822 41.1146C6.6305 41.4061 6.99339 41.5463 7.34659 41.4728L13.6272 40.1686L15.8346 46.3889C15.9544 46.7274 16.2609 46.9645 16.6188 46.9964C16.9767 47.0283 17.3198 46.8479 17.4973 46.5356L23.5918 35.8212L29.6859 46.5356C29.8501 46.8243 30.1556 46.9996 30.4834 46.9996C30.5103 46.9996 30.5375 46.9985 30.5644 46.9964C30.9223 46.9645 31.2289 46.7271 31.349 46.3889L33.5561 40.1686L39.8366 41.4728C40.1895 41.5459 40.5527 41.4057 40.765 41.1146C40.9776 40.8234 40.9995 40.4347 40.8217 40.1209L35.2913 30.3743C38.9491 27.0671 41.0329 22.3973 41.0329 17.4413C41.0329 9.4618 35.6398 2.51212 27.9181 0.540994C27.4265 0.41549 26.927 0.712037 26.8015 1.20329C26.676 1.69455 26.9725 2.19442 27.4638 2.31992C34.3722 4.08343 39.1973 10.3016 39.1973 17.4413C39.1973 26.1308 32.14 33.0468 23.5918 33.0468C15.0375 33.0468 7.9863 26.1251 7.9863 17.4413C7.9863 10.3016 12.811 4.08343 19.7195 2.31992C20.2107 2.19442 20.5073 1.69455 20.3821 1.20329C20.2566 0.712037 19.7571 0.41549 19.2655 0.540994ZM16.8938 43.8839L15.0898 38.8003C14.9363 38.3678 14.4874 38.115 14.0381 38.2083L8.95949 39.2628L13.3363 31.549C15.8884 33.4043 18.9101 34.5346 22.0524 34.8143L16.8938 43.8839ZM33.1451 38.2083C32.6962 38.115 32.2469 38.3678 32.0934 38.8003L30.2897 43.8839L25.1308 34.8143C28.2734 34.5346 31.2949 33.4043 33.8472 31.549L38.2241 39.2628L33.1451 38.2083Z" fill="#00004D"/>
</g>
<defs>
<clipPath id="clip0_125_310">
<rect width="47" height="47" fill="white"/>
</clipPath>
</defs>
</svg>
