<svg width="47" height="47" viewBox="0 0 47 47" fill="none" xmlns="http://www.w3.org/2000/svg">
<path d="M3.16778 45.5899H43.8322C44.0815 45.5899 44.3206 45.4909 44.4969 45.3146C44.6731 45.1383 44.7722 44.8992 44.7722 44.6499V40.011C44.7688 38.8205 44.4859 37.6474 43.9463 36.5861C43.4067 35.5249 42.6255 34.6052 41.6655 33.901C37.9807 31.2079 34.9586 29.6381 32.4723 29.1399C32.416 29.0084 32.329 28.8924 32.2185 28.8015L29.986 26.9685C29.8111 26.8249 29.5903 26.7491 29.3641 26.7552C29.1379 26.7612 28.9215 26.8486 28.7546 27.0014L23.5 31.7954L18.2454 26.9873C18.0785 26.8345 17.862 26.7471 17.6358 26.7411C17.4096 26.735 17.1888 26.8108 17.014 26.9544L14.7815 28.7874C14.671 28.8783 14.584 28.9943 14.5277 29.1258C12.0414 29.6381 9.01928 31.2079 5.33918 33.9057C4.3778 34.6089 3.59527 35.5283 3.05478 36.5896C2.51429 37.651 2.231 38.8247 2.22778 40.0157V44.6499C2.22778 44.8992 2.32682 45.1383 2.5031 45.3146C2.67939 45.4909 2.91848 45.5899 3.16778 45.5899ZM23.5 34.2817L26.0427 36.3685L24.6844 38.0699H22.3344L20.9761 36.3591L23.5 34.2817ZM22.5224 39.9499H24.4776L25.85 43.7099H21.15L22.5224 39.9499ZM42.8922 40.0016V43.7099H27.8522L26.2072 39.1885L27.4997 37.5576L28.0261 37.99C28.194 38.1291 28.405 38.2056 28.623 38.2062C28.7039 38.2045 28.7843 38.1935 28.8627 38.1733C29.0062 38.1347 29.1386 38.0626 29.2489 37.963C29.3592 37.8633 29.4443 37.7389 29.4972 37.5999L32.0681 30.9588C34.2677 31.4288 37.1159 32.9046 40.5281 35.4191C41.2555 35.9447 41.8487 36.6344 42.2594 37.4323C42.6702 38.2301 42.887 39.1136 42.8922 40.011V40.0016ZM29.422 28.9237L30.503 29.8073L28.2 35.7199L24.91 33.0315L29.422 28.9237ZM17.578 28.9237L22.09 33.0268L18.8 35.7199L16.497 29.8073L17.578 28.9237ZM4.10778 40.011C4.11209 39.1156 4.32707 38.2339 4.73531 37.437C5.14356 36.6401 5.73362 35.9504 6.45778 35.4238C9.89348 32.9093 12.7417 31.4147 14.9178 30.9635L17.5028 37.5999C17.5567 37.7385 17.6428 37.8623 17.7539 37.9612C17.865 38.0601 17.998 38.1312 18.142 38.1686C18.2204 38.1888 18.3008 38.1998 18.3817 38.2015C18.5997 38.2009 18.8107 38.1244 18.9786 37.9853L19.505 37.5529L20.7975 39.1838L19.1525 43.7099H4.11248L4.10778 40.011Z" fill="#00004D"/>
<path d="M13.7756 12.4175C13.6959 14.1401 13.9744 15.8605 14.5934 17.47C14.5025 19.1299 14.7487 20.7911 15.3172 22.3533C16.37 25.1733 20.5906 28.2847 22.9688 28.5667H24.0639C26.4139 28.2847 30.6439 25.1639 31.7202 22.3533C32.3097 20.7329 32.5515 19.0066 32.4299 17.2867V16.4783C32.9939 15.1858 33.6566 11.7783 33.2242 9.81837C33.1161 9.01937 32.021 2.45817 24.3694 1.52757C18.4897 0.813166 16.6379 3.59557 15.4394 5.43797C15.1616 5.90375 14.8269 6.33318 14.443 6.71637C12.657 8.22037 11.3739 9.50347 11.3222 9.53637C11.2296 9.62821 11.1572 9.73832 11.1094 9.85969C11.0617 9.98107 11.0397 10.111 11.0449 10.2414C11.0507 10.3723 11.0838 10.5005 11.1421 10.6179C11.2004 10.7352 11.2826 10.8391 11.3833 10.9229C12.1202 11.512 12.923 12.0135 13.7756 12.4175ZM29.9624 21.6906C29.1822 23.7492 25.6572 26.4423 23.89 26.6914H23.1427C21.3755 26.4423 17.8599 23.7492 17.075 21.6906C16.5843 20.326 16.3827 18.8743 16.4828 17.4277V17.3901C16.4855 17.3777 16.4855 17.3649 16.4828 17.3525C16.4828 17.3525 16.6426 14.7111 18.2453 13.6912C19.1823 13.7974 20.1283 13.7974 21.0653 13.6912C24.7219 13.2212 26.7382 11.971 27.6171 11.2566C28.8109 11.9522 29.7321 13.5784 30.5593 16.3984V17.3384C30.557 17.3775 30.557 17.4167 30.5593 17.4559C30.6526 18.8934 30.4494 20.3348 29.9624 21.6906ZM15.6415 8.15457C16.1655 7.66108 16.6194 7.09811 16.9904 6.48137C18.1278 4.76117 19.4203 2.82007 24.1532 3.39347C30.7332 4.19247 31.3442 9.82777 31.3677 10.0675C31.3655 10.1097 31.3655 10.1521 31.3677 10.1944C31.5154 11.1388 31.5059 12.1012 31.3395 13.0426C30.5593 11.3224 29.4595 9.85597 27.744 9.24027C27.5647 9.17952 27.3714 9.17298 27.1883 9.22146C27.0052 9.26995 26.8405 9.3713 26.7147 9.51287C26.7147 9.51287 25.1355 11.2801 20.835 11.8112C19.9519 11.9239 19.058 11.9239 18.1748 11.8112C17.9893 11.7881 17.8012 11.8208 17.6343 11.9052C16.8161 12.3226 16.1356 12.9672 15.6744 13.7617C15.6281 13.1484 15.6281 12.5325 15.6744 11.9193C15.6898 11.7222 15.6427 11.5253 15.5398 11.3565C15.4368 11.1878 15.2833 11.0558 15.101 10.9793C14.5262 10.7353 13.9701 10.4494 13.4372 10.1239C13.9871 9.60217 14.7532 8.90187 15.6415 8.15457Z" fill="#00004D"/>
</svg>
