<svg width="38" height="38" viewBox="0 0 38 38" fill="none" xmlns="http://www.w3.org/2000/svg">
<path fill-rule="evenodd" clip-rule="evenodd" d="M2.90261 27.9404H16.0455C16.3582 28.5603 16.7454 29.136 17.196 29.6555H1.18756V1.276H2.90261V27.9404ZM23.508 17.0182C19.5504 17.0182 16.3421 20.2266 16.3421 24.1841C16.3421 28.1417 19.5505 31.35 23.508 31.35C25.3118 31.35 26.9598 30.6833 28.2195 29.5832L30.4191 31.7176L30.3382 31.8011C30.0888 32.0582 30.0949 32.4728 30.3521 32.7223L34.2873 36.5408C34.5445 36.7903 34.959 36.7842 35.2085 36.527L36.6293 35.0628C36.8788 34.8056 36.8725 34.3911 36.6154 34.1416L32.6802 30.323C32.4231 30.0735 32.0085 30.0797 31.759 30.3368L31.678 30.4202L29.422 28.2311C30.2116 27.0795 30.6739 25.6858 30.6739 24.1841C30.6739 20.2265 27.4656 17.0182 23.508 17.0182ZM23.5264 19.0438C26.3755 19.0438 28.6852 21.3535 28.6852 24.2026C28.6852 27.0517 26.3755 29.3614 23.5264 29.3614C20.6773 29.3614 18.3676 27.0517 18.3676 24.2026C18.3676 21.3535 20.6773 19.0438 23.5264 19.0438ZM30.9706 27.9404H33.1163V29.1811C32.742 28.9744 32.311 28.9082 31.9005 28.9815L30.9232 28.033C30.9392 28.0023 30.955 27.9714 30.9706 27.9404ZM7.73046 14.4281L13.7766 9.72016C13.9878 9.83558 14.23 9.90126 14.4876 9.90126C14.9304 9.90126 15.3279 9.70725 15.6 9.39961L20.1315 10.8683C20.2036 11.6208 20.8375 12.2093 21.6089 12.2093C22.4287 12.2093 23.0933 11.5448 23.0933 10.7249C23.0933 10.5306 23.0559 10.345 22.988 10.1749L27.9519 5.16863L27.8823 5.79073C27.8465 6.1161 28.0812 6.40897 28.4065 6.44482C28.7318 6.48066 29.0247 6.24599 29.0606 5.92068L29.3151 3.64417C29.3802 3.26573 29.0664 2.91831 28.6789 2.95171L26.3608 3.155C26.0341 3.1832 25.7922 3.4708 25.8204 3.79743C25.8486 4.12407 26.1362 4.36602 26.4628 4.33782L27.1696 4.27585L22.1471 9.34135C21.9802 9.27641 21.7987 9.24071 21.6089 9.24071C21.166 9.24071 20.7685 9.43472 20.4965 9.74236L15.965 8.27364C15.8928 7.52114 15.2589 6.93266 14.4875 6.93266C13.6677 6.93266 13.0031 7.59721 13.0031 8.41703C13.0031 8.54476 13.0192 8.66871 13.0496 8.78694L7.00208 13.4959C6.74462 13.697 6.69897 14.0687 6.90003 14.3263C7.10124 14.5835 7.473 14.6292 7.73046 14.4281ZM6.19094 17.9353C5.78215 17.9353 5.44876 18.2687 5.44876 18.6775V24.6859C5.44876 25.0947 5.78215 25.428 6.19094 25.428H8.54175C8.95055 25.428 9.28394 25.0947 9.28394 24.6859V18.6775C9.28394 18.2687 8.95055 17.9353 8.54175 17.9353H6.19094ZM27.5547 8.15615H29.9055C30.3143 8.15615 30.6477 8.48954 30.6477 8.89834V19.8458C29.7506 18.3728 28.4103 17.1996 26.8125 16.5104V8.89834C26.8125 8.48954 27.1459 8.15615 27.5547 8.15615ZM20.4334 14.7854H22.7843C23.193 14.7854 23.5264 15.1189 23.5264 15.5277V15.831C23.5203 15.831 23.5142 15.8307 23.508 15.8307C22.1329 15.8307 20.8354 16.1632 19.6913 16.752V15.5276C19.6913 15.1189 20.0247 14.7854 20.4334 14.7854ZM13.3122 13.187C12.9034 13.187 12.57 13.5204 12.57 13.9292V24.6859C12.57 25.0947 12.9034 25.4281 13.3122 25.4281H15.247C15.1863 25.0223 15.1546 24.6069 15.1546 24.1841C15.1546 22.5706 15.6127 21.0642 16.4051 19.787V13.9292C16.4051 13.5204 16.0718 13.187 15.663 13.187H13.3122Z" fill="#00004D"/>
</svg>
