<svg width="40" height="40" viewBox="0 0 40 40" fill="none" xmlns="http://www.w3.org/2000/svg">
<g clip-path="url(#clip0_125_232)">
<path d="M39.5866 16.7785L36.6933 15.6649C36.2928 14.1191 35.6802 12.6413 34.8685 11.2631L36.1277 8.42805C36.236 8.18418 36.1831 7.89869 35.9944 7.70998L32.29 4.00564C32.1012 3.81693 31.816 3.76386 31.5719 3.87217L28.7358 5.13184C27.3573 4.32023 25.8802 3.70773 24.3355 3.30741L23.2215 0.413386C23.1256 0.164355 22.8862 0 22.6193 0H17.3806C17.1137 0 16.8744 0.164355 16.7785 0.413386L15.6645 3.30749C14.1198 3.70773 12.6426 4.32023 11.2642 5.13193L8.42806 3.87225C8.18411 3.76394 7.89879 3.81701 7.71 4.00572L4.00564 7.71006C3.81694 7.89877 3.76395 8.18418 3.87226 8.42813L5.13169 11.2639C4.32008 12.6422 3.70758 14.1196 3.30726 15.6647L0.413387 16.7786C0.164355 16.8744 0 17.1138 0 17.3807V22.6194C0 22.8863 0.164355 23.1256 0.413387 23.2215L3.30677 24.3351C3.70726 25.8809 4.31984 27.3587 5.13145 28.7369L3.87226 31.572C3.76395 31.8158 3.81694 32.1013 4.00564 32.29L7.71008 35.9944C7.89887 36.1831 8.18419 36.2362 8.42815 36.1278L11.2643 34.8682C12.6427 35.6798 14.1199 36.2923 15.6646 36.6926L16.7785 39.5866C16.8744 39.8357 17.1137 40 17.3806 40H22.6194C22.8863 40 23.1256 39.8356 23.2215 39.5866L24.3352 36.6934C25.8808 36.293 27.3586 35.6804 28.7369 34.8687L31.5719 36.1279C31.8159 36.2363 32.1012 36.1832 32.29 35.9945L35.9944 32.2901C36.1831 32.1014 36.236 31.816 36.1277 31.572L34.8681 28.736C35.6798 27.3575 36.2923 25.8804 36.6925 24.3356L39.5866 23.2216C39.8356 23.1258 40 22.8865 40 22.6196V17.3809C40 17.1137 39.8356 16.8743 39.5866 16.7785ZM38.7097 22.1763L35.9156 23.2517C35.7171 23.3281 35.569 23.4975 35.5198 23.7045C35.129 25.3468 34.4806 26.9105 33.5927 28.3524C33.4812 28.5336 33.4662 28.7581 33.5525 28.9525L34.7686 31.6907L31.6908 34.7686L28.9536 33.5529C28.7594 33.4665 28.5348 33.4815 28.3535 33.5932C26.9119 34.4811 25.3477 35.1294 23.7044 35.5205C23.4974 35.5698 23.328 35.7178 23.2516 35.9164L22.1764 38.7096H17.8236L16.7481 35.9157C16.6718 35.7171 16.5023 35.569 16.2955 35.5198C14.6532 35.129 13.0894 34.4807 11.6475 33.5928C11.4662 33.4812 11.2417 33.4663 11.0474 33.5525L8.30919 34.7686L5.23129 31.6907L6.44702 28.9536C6.53331 28.7591 6.51831 28.5345 6.40669 28.3534C5.51895 26.912 4.87056 25.3479 4.47943 23.7043C4.43024 23.4974 4.2821 23.3279 4.08363 23.2516L1.29032 22.1764V17.8236L4.08411 16.7483C4.28266 16.6719 4.43073 16.5025 4.47992 16.2955C4.87089 14.6528 5.51927 13.0889 6.40702 11.6473C6.51863 11.4661 6.53363 11.2416 6.44734 11.0472L5.23137 8.30926L8.30919 5.23128L11.0474 6.44741C11.2417 6.5337 11.4663 6.5187 11.6475 6.40708C13.0894 5.51934 14.6531 4.87104 16.2955 4.48015C16.5023 4.43088 16.6718 4.28281 16.7481 4.08427L17.8237 1.29032H22.1764L23.2519 4.08427C23.3282 4.28281 23.4977 4.43088 23.7045 4.48015C25.3469 4.87104 26.9106 5.51934 28.3525 6.40708C28.5338 6.5187 28.7583 6.53362 28.9526 6.44741L31.6908 5.23128L34.7687 8.30918L33.553 11.0463C33.4667 11.2408 33.4817 11.4654 33.5933 11.6465C34.4811 13.0879 35.1295 14.6521 35.5206 16.2956C35.5698 16.5025 35.7178 16.672 35.9164 16.7484L38.7097 17.8235V22.1763ZM31.0168 13.5952C32.1454 15.5321 32.7419 17.7468 32.7419 20C32.7419 27.0259 27.0259 32.7419 20 32.7419C17.5194 32.7419 15.0956 32.0135 13.0353 30.6694L13.1107 30.9336C13.2085 31.2762 13.0099 31.6332 12.6673 31.731C12.6082 31.7478 12.5485 31.7559 12.49 31.7559C12.2092 31.7559 11.9508 31.5711 11.8699 31.2876L11.2576 29.1416C11.2031 28.9508 11.2395 28.7457 11.3561 28.5853C11.4727 28.4248 11.6567 28.3269 11.8549 28.3198L14.0852 28.2396C14.4425 28.2253 14.7403 28.5051 14.7531 28.8612C14.7658 29.2174 14.4876 29.5163 14.1315 29.5291L13.6739 29.5456C15.5395 30.7815 17.7436 31.4515 20 31.4515C26.3144 31.4515 31.4516 26.3144 31.4516 20C31.4516 17.9748 30.9157 15.9847 29.9019 14.2448C29.7225 13.9369 29.8267 13.5419 30.1346 13.3626C30.4425 13.1831 30.8374 13.2874 31.0168 13.5952ZM8.54839 20C8.54839 22.0256 9.08427 24.016 10.0981 25.756C10.2775 26.0638 10.1733 26.4588 9.8654 26.6382C9.76322 26.6977 9.65153 26.726 9.54121 26.726C9.31911 26.726 9.10298 26.6112 8.98314 26.4055C7.8546 24.4687 7.25806 22.2536 7.25806 20C7.25806 12.974 12.9741 7.25805 20 7.25805C22.4807 7.25805 24.9045 7.98668 26.9649 9.33127L26.8893 9.06619C26.7915 8.72353 26.9901 8.36652 27.3327 8.26877C27.6752 8.17087 28.0324 8.36958 28.1302 8.71216L28.7424 10.8582C28.7969 11.0489 28.7605 11.2541 28.6439 11.4145C28.5273 11.575 28.3433 11.6729 28.1451 11.68L25.9149 11.7601C25.907 11.7605 25.8992 11.7605 25.8914 11.7605C25.5457 11.7605 25.2595 11.4868 25.247 11.1385C25.2343 10.7825 25.5125 10.4834 25.8686 10.4706L26.3253 10.4543C24.4597 9.21837 22.2559 8.54837 20 8.54837C13.6856 8.54837 8.54839 13.6855 8.54839 20ZM17.4562 27.4697H17.981C18.3373 27.4697 18.6262 27.1808 18.6262 26.8245L18.6263 22.6383C20.6781 23.1391 22.4878 24.2104 24.3067 25.3625C24.5503 25.5168 24.8217 25.5944 25.094 25.5944C25.3369 25.5944 25.5806 25.5327 25.8058 25.4087C26.2838 25.1457 26.5691 24.663 26.5691 24.1175V21.3371C27.5407 21.0852 28.2603 20.2008 28.2603 19.1516C28.2603 18.1027 27.5413 17.2187 26.5691 16.9663V14.0071C26.5691 13.4778 26.2963 13.0022 25.8395 12.7351C25.3825 12.4678 24.8344 12.4631 24.373 12.7226C24.069 12.8935 23.7635 13.0698 23.4404 13.2565C21.7577 14.2281 19.853 15.328 17.9144 15.742H15.1138C13.2534 15.742 11.7398 17.2555 11.7398 19.1159C11.7398 20.9763 13.2534 22.4899 15.1138 22.4899H15.3115V25.3249C15.3115 26.5075 16.2736 27.4697 17.4562 27.4697ZM26.9699 19.1516C26.9699 19.4735 26.8112 19.7584 26.569 19.9343V18.3692C26.8114 18.5451 26.9699 18.8299 26.9699 19.1516ZM16.6018 25.3249V22.4899H17.336L17.3359 26.1709C16.9215 26.1122 16.6018 25.7552 16.6018 25.3249ZM23.0507 23.0966C21.6817 22.3267 20.223 21.6604 18.6263 21.3128L18.6264 16.8975C20.1934 16.4911 21.681 15.7359 23.0507 14.9659V23.0966ZM25.0053 13.8472C25.0696 13.8111 25.1242 13.8116 25.188 13.8489C25.2516 13.8861 25.2787 13.9334 25.2787 14.0071V24.1175C25.2787 24.1925 25.2494 24.242 25.1836 24.2783C25.1178 24.3145 25.0604 24.3126 24.9971 24.2725C24.7804 24.1353 24.5617 23.9979 24.341 23.8616V14.2264C24.5683 14.0955 24.7882 13.9693 25.0053 13.8472ZM13.03 19.1159C13.03 17.967 13.9648 17.0323 15.1137 17.0323H17.336L17.336 21.1996H15.1137C13.9648 21.1996 13.03 20.2648 13.03 19.1159Z" fill="#00004D"/>
</g>
<defs>
<clipPath id="clip0_125_232">
<rect width="40" height="40" fill="white" transform="matrix(1 0 0 -1 0 40)"/>
</clipPath>
</defs>
</svg>
