<svg width="47" height="47" viewBox="0 0 47 47" fill="none" xmlns="http://www.w3.org/2000/svg">
<path d="M11.2828 34.2316C11.153 33.8189 10.713 33.5891 10.3003 33.7189C9.88717 33.8487 9.65768 34.2887 9.78749 34.7017L10.5262 37.0515C10.6287 37.3778 10.931 37.5998 11.2727 37.6002C11.3523 37.5998 11.4316 37.5876 11.5076 37.5639C11.7059 37.5015 11.8712 37.3631 11.9673 37.1788C12.0634 36.9949 12.0824 36.7797 12.02 36.5818L11.2828 34.2316Z" fill="#00004D"/>
<path d="M14.8736 29.7666H16.4402C16.873 29.7666 17.2237 29.4159 17.2237 28.9835C17.2237 28.5506 16.873 28.2 16.4402 28.2H14.8736C14.4411 28.2 14.0905 28.5506 14.0905 28.9835C14.0905 29.4159 14.4411 29.7666 14.8736 29.7666Z" fill="#00004D"/>
<path d="M8.80353 31.5685C8.90644 31.8948 9.20873 32.1167 9.55082 32.1167C9.63078 32.1164 9.71003 32.1045 9.78605 32.0805C9.98398 32.0185 10.1496 31.8797 10.2454 31.6958C10.3415 31.5115 10.3605 31.2967 10.2981 31.0984L9.87999 29.7666H11.7403C12.1731 29.7666 12.5238 29.4159 12.5238 28.9835C12.5238 28.5506 12.1731 28.2 11.7403 28.2H8.81321C8.56364 28.2 8.32913 28.3186 8.18139 28.5198C8.03402 28.721 7.99099 28.9802 8.06557 29.2183L8.80353 31.5685Z" fill="#00004D"/>
<path d="M15.6571 33.6834C15.6571 34.951 16.8132 35.5283 17.6569 35.955C18.3203 36.2824 18.7904 36.5395 18.7904 36.8167C18.7639 37.238 18.4282 37.5736 18.0069 37.6002C17.5744 37.6002 17.2237 37.2495 17.2237 36.8167C17.2237 36.3842 16.8731 36.0335 16.4402 36.0335C16.0078 36.0335 15.6571 36.3842 15.6571 36.8167C15.6571 38.1147 16.7092 39.1668 18.0069 39.1668C19.2913 39.1342 20.3244 38.1008 20.357 36.8167C20.357 35.5491 19.201 34.9718 18.3572 34.5451C17.6938 34.2177 17.2237 33.9606 17.2237 33.6834C17.2503 33.2621 17.5859 32.9264 18.0069 32.8999C18.4397 32.8999 18.7904 33.2506 18.7904 33.6834C18.7904 34.1158 19.1411 34.4665 19.5735 34.4665C20.0063 34.4665 20.357 34.1158 20.357 33.6834C20.357 32.3853 19.305 31.3333 18.0069 31.3333C16.7228 31.3659 15.6897 32.3993 15.6571 33.6834Z" fill="#00004D"/>
<path d="M23.4903 39.1668H25.057C25.4898 39.1668 25.8405 38.8161 25.8405 38.3833C25.8405 37.9509 25.4898 37.6002 25.057 37.6002H23.4903V36.0335H25.057C25.4898 36.0335 25.8405 35.6825 25.8405 35.25C25.8405 34.8176 25.4898 34.4665 25.057 34.4665H23.4903V32.8999H25.057C25.4898 32.8999 25.8405 32.5492 25.8405 32.1168C25.8405 31.6839 25.4898 31.3333 25.057 31.3333H23.4903C22.6251 31.3333 21.9237 32.0346 21.9237 32.8999V37.6002C21.9237 38.4654 22.6251 39.1668 23.4903 39.1668Z" fill="#00004D"/>
<path d="M30.1488 39.1668C31.6628 39.1668 32.8905 37.939 32.8905 36.4251V34.075C32.8905 32.561 31.6628 31.3333 30.1488 31.3333C28.6345 31.3333 27.4071 32.561 27.4071 34.075V36.4251C27.4071 37.1523 27.6958 37.8494 28.21 38.3636C28.7242 38.8778 29.4216 39.1668 30.1488 39.1668ZM28.9737 34.075C28.9737 33.4259 29.4998 32.8999 30.1488 32.8999C30.7975 32.8999 31.3235 33.4259 31.3235 34.075V36.4251C31.3235 37.0741 30.7975 37.6002 30.1488 37.6002C29.4998 37.6002 28.9737 37.0741 28.9737 36.4251V34.075Z" fill="#00004D"/>
<path d="M1.68641 40.6549C1.69824 40.7198 1.71832 40.7829 1.74593 40.8432L3.98527 45.6424C4.37218 46.4679 5.19979 46.9964 6.1113 47H40.8693C41.7826 46.9975 42.6124 46.4686 43 45.6417L45.2351 40.8406C45.2623 40.7808 45.2824 40.7177 45.2946 40.6527C45.6732 38.5784 45.1924 36.4391 43.9628 34.7261L41.5345 31.3504L42.143 29.4127C42.4589 28.4154 42.276 27.3271 41.6521 26.4877C40.9798 25.5884 39.9209 25.0609 38.7982 25.0666H36.8453C35.8262 23.9697 34.5931 23.0934 33.2219 22.492C31.6237 21.7992 30.3156 21.1861 29.3323 20.6729L29.3237 20.6668C28.8866 20.4381 28.5531 20.2491 28.2932 20.0924C28.978 19.211 29.4984 18.2134 29.829 17.147C30.1083 17.0635 30.3711 16.9329 30.6071 16.7619C30.7308 17.0473 31.0123 17.2327 31.3235 17.2334H33.6737C34.5389 17.2334 35.2403 16.532 35.2403 15.6668V12.5335C35.2403 11.6682 34.5389 10.9665 33.6737 10.9665H33.4811C33.9699 8.44065 33.3743 5.82552 31.8399 3.76009C30.004 1.33572 27.0381 0 23.4903 0C19.9425 0 16.977 1.33572 15.1407 3.76009C13.6049 5.8248 13.0083 8.43993 13.4959 10.9665H13.307C12.4417 10.9665 11.7403 11.6682 11.7403 12.5335V15.6668C11.7403 16.532 12.4417 17.2334 13.307 17.2334H15.3767C16.0451 17.6985 16.7899 18.0431 17.5769 18.2518C17.8606 18.9134 18.2346 19.533 18.6878 20.0924C18.4275 20.2491 18.094 20.4381 17.6569 20.6668L17.6483 20.6729C16.6651 21.1861 15.357 21.7992 13.7591 22.492C12.3876 23.0934 11.1544 23.9697 10.1353 25.0666H8.18247C7.06154 25.0623 6.00445 25.5895 5.33354 26.4877C4.70925 27.3271 4.52673 28.4154 4.84228 29.4127L5.45115 31.3504L3.02248 34.7261C1.79075 36.4391 1.30846 38.5791 1.68641 40.6549ZM9.39053 44.6499C9.39053 44.2174 9.74122 43.8667 10.1737 43.8667H36.807C37.2398 43.8667 37.5905 44.2174 37.5905 44.6499C37.5905 45.0827 37.2398 45.4334 36.807 45.4334H10.1737C9.74122 45.4334 9.39053 45.0827 9.39053 44.6499ZM42.6884 35.6416C43.6505 36.9802 44.0399 38.6465 43.771 40.2727L41.5775 44.9805C41.4481 45.2562 41.1716 45.433 40.8672 45.4341H39.023C39.0467 45.3685 39.0592 45.2971 39.0764 45.229C39.0883 45.1827 39.1037 45.139 39.1123 45.0916C39.1413 44.9464 39.156 44.7983 39.1571 44.6499C39.1542 44.4594 39.1281 44.2701 39.0786 44.0862C39.0653 44.032 39.0467 43.9818 39.0302 43.9295C38.9889 43.8 38.9366 43.6745 38.8735 43.554C38.8484 43.5071 38.8265 43.4601 38.7953 43.4156C38.7013 43.2607 38.5902 43.1169 38.4636 42.9871C38.3349 42.8616 38.1922 42.7515 38.0383 42.6587C38.0204 42.6479 38.0071 42.6314 37.9892 42.6203L40.9421 33.2204L42.6884 35.6416ZM34.5353 25.0666H27.8772C28.6672 24.4018 29.2484 23.5226 29.5503 22.5351C30.412 22.955 31.4225 23.4186 32.6051 23.9299C33.2925 24.229 33.9405 24.6105 34.5353 25.0666ZM18.861 21.7992L18.8696 21.7946C19.0654 21.6867 19.2479 21.5823 19.4179 21.4812L19.5072 21.4288C19.6833 21.3223 19.8471 21.2191 19.9881 21.1226L20.3061 21.2721C20.3624 21.2987 20.4284 21.3309 20.4815 21.3553C20.5912 21.4062 20.6891 21.4486 20.7855 21.4916L20.9523 21.5651C21.0387 21.6013 21.1176 21.6304 21.1961 21.6601C21.2438 21.678 21.2962 21.6992 21.3417 21.7157C21.4199 21.7408 21.4898 21.7594 21.5619 21.7799C21.6049 21.7917 21.6512 21.8071 21.6942 21.8175C21.7677 21.8347 21.8444 21.8462 21.9197 21.8581C21.962 21.8652 22.0036 21.8753 22.0474 21.881C22.1306 21.8918 22.222 21.8982 22.3131 21.9043C22.3561 21.9043 22.3913 21.9129 22.4407 21.9154C22.5447 21.9208 22.6656 21.9233 22.7861 21.9255H22.9116H23.4943H24.078H24.1978C24.3208 21.9255 24.4431 21.9208 24.5485 21.9154C24.5919 21.9154 24.627 21.9083 24.6686 21.905C24.7626 21.8982 24.8565 21.8918 24.9411 21.881C24.9827 21.8753 25.0193 21.8667 25.0616 21.8598C25.1402 21.8473 25.2183 21.8347 25.2969 21.8175C25.3374 21.8071 25.3804 21.7932 25.422 21.7813C25.4966 21.7609 25.5708 21.7415 25.6493 21.7146C25.6924 21.6999 25.7426 21.6795 25.7877 21.6623C25.8663 21.6318 25.9502 21.602 26.0384 21.5644C26.0879 21.5439 26.1467 21.5167 26.1951 21.4937C26.293 21.4507 26.3934 21.407 26.5085 21.3546L26.6763 21.2761L27.0005 21.1194C27.1414 21.2158 27.3053 21.3191 27.4813 21.4256L27.5706 21.4783C27.7374 21.5773 27.9202 21.682 28.1192 21.7917L28.1279 21.7964C27.7485 23.666 25.8154 25.0666 23.4903 25.0666C21.1653 25.0666 19.2322 23.666 18.861 21.7992ZM17.7964 8.60094C17.8043 8.55862 17.8143 8.51631 17.8229 8.474C17.8409 8.38543 17.8599 8.29722 17.8832 8.20865C17.8964 8.15916 17.9122 8.10968 17.9273 8.06055C17.9513 7.98203 17.9771 7.89919 18.0055 7.81851C18.0241 7.76759 18.0445 7.71667 18.065 7.66181C18.0972 7.58328 18.131 7.50511 18.1675 7.43053C18.1916 7.37853 18.2177 7.32833 18.2461 7.28028C18.2859 7.20211 18.3296 7.12358 18.3752 7.0533C18.4042 7.00525 18.4325 6.95827 18.463 6.9113C18.5146 6.83313 18.5709 6.7546 18.6283 6.68181C18.6595 6.64093 18.6886 6.59969 18.7215 6.55953C18.7958 6.46881 18.8782 6.38096 18.9564 6.29418C18.9776 6.27231 18.9962 6.24936 19.0184 6.22749C19.1285 6.11812 19.2447 6.01485 19.3663 5.91803C19.396 5.89472 19.4287 5.87357 19.4595 5.8499C19.5556 5.77711 19.6542 5.70503 19.76 5.63762C19.8088 5.60571 19.8629 5.57666 19.9167 5.54582C20.0099 5.49132 20.1049 5.43717 20.205 5.38948C20.2652 5.35864 20.3298 5.32996 20.3929 5.30091C20.4919 5.25537 20.593 5.21234 20.6977 5.17146C20.7676 5.14421 20.8386 5.11839 20.9118 5.09329C21.019 5.05636 21.1301 5.02193 21.2445 4.98966C21.323 4.96779 21.4012 4.94663 21.4794 4.92727C21.5995 4.89822 21.7254 4.87241 21.8523 4.84874C21.9308 4.83332 22.009 4.81754 22.0969 4.80428C22.2403 4.7824 22.3913 4.76591 22.5433 4.75085C22.6215 4.74296 22.69 4.73292 22.7667 4.72754C23.0016 4.71033 23.2364 4.69993 23.4918 4.69993C23.7474 4.69993 23.9848 4.71033 24.2172 4.72754C24.2957 4.73292 24.3653 4.74296 24.4406 4.75085C24.5926 4.76591 24.7436 4.7824 24.887 4.80428C24.9709 4.81754 25.0509 4.83332 25.1315 4.84874C25.2585 4.87241 25.3843 4.89822 25.5045 4.92727C25.5826 4.94663 25.6608 4.96779 25.7393 4.98966C25.8537 5.02193 25.9649 5.05636 26.0721 5.09329C26.1453 5.11839 26.2163 5.14421 26.2862 5.17146C26.3909 5.21234 26.492 5.25537 26.591 5.30091C26.6541 5.32996 26.7186 5.35864 26.7789 5.38948C26.8789 5.4404 26.9739 5.49419 27.0672 5.54582C27.1181 5.57666 27.1719 5.60571 27.2239 5.63762C27.3296 5.70503 27.4283 5.77711 27.5244 5.8499C27.5552 5.87357 27.5878 5.89472 27.6176 5.91803C27.7391 6.01485 27.8553 6.11812 27.9654 6.22749C27.9876 6.24936 28.0063 6.27231 28.0274 6.29418C28.1114 6.38096 28.192 6.46881 28.2663 6.55953C28.2993 6.59969 28.3283 6.63806 28.3595 6.68181C28.4169 6.76034 28.4732 6.83385 28.5248 6.9113C28.5553 6.95827 28.5836 7.00525 28.6127 7.0533C28.6578 7.13147 28.7019 7.20354 28.7417 7.28028C28.7676 7.32977 28.7934 7.37997 28.8203 7.43053C28.8568 7.50906 28.8906 7.58723 28.9228 7.66181C28.9433 7.71345 28.9633 7.76437 28.9824 7.81851C29.0121 7.89668 29.0379 7.97987 29.0605 8.06055C29.0756 8.10968 29.0914 8.15916 29.1046 8.20865C29.1279 8.29722 29.1469 8.38543 29.1649 8.474C29.1735 8.51631 29.1835 8.55862 29.1914 8.60094L29.1953 8.62998C27.8205 7.62452 26.0309 7.38176 24.438 7.98525C23.8346 8.2255 23.1619 8.2255 22.5584 7.98525C20.9655 7.38248 19.1759 7.62488 17.8011 8.62998L17.7964 8.60094ZM33.6737 15.6668H32.107V13.8495C32.107 13.8111 32.107 13.771 32.107 13.7358V12.5335H33.6737V15.6668ZM16.3904 4.70638C17.9233 2.68147 20.4449 1.56664 23.4903 1.56664C26.5361 1.56664 29.0577 2.68147 30.5906 4.70638C31.9134 6.50503 32.3839 8.79206 31.8783 10.9665H31.3235C31.032 10.969 30.7659 11.1343 30.6351 11.395C30.6939 11.0723 30.7394 10.7184 30.7724 10.3375C30.7724 10.3182 30.7831 10.2999 30.7849 10.2805C30.8075 10.0001 30.8208 9.70716 30.8208 9.39986C30.8208 6.28091 28.5538 3.13329 23.4903 3.13329C18.4268 3.13329 16.1598 6.28091 16.1598 9.39986C16.1598 9.70716 16.1731 10.0001 16.196 10.2805C16.196 10.2999 16.2054 10.3182 16.2086 10.3375C16.2412 10.7184 16.2868 11.0723 16.3456 11.395C16.2147 11.1343 15.9486 10.969 15.6571 10.9665H15.1024C14.5968 8.79206 15.0672 6.50503 16.3904 4.70638ZM13.307 12.5335H14.8736V13.7358V13.8495V15.6668H13.307V12.5335ZM21.9237 17.2334C20.8529 17.2445 19.7837 17.1413 18.7348 16.9254C18.6487 16.6841 18.5727 16.4517 18.5193 16.2509C18.4289 15.9067 18.1177 15.6668 17.762 15.6668C17.3396 15.6668 16.8648 15.2193 16.6073 14.5778C16.3524 14.112 16.3753 13.5436 16.6669 13.0997C16.7547 13.0273 16.8666 12.9911 16.9799 12.9979C17.0466 12.9982 17.1129 13.005 17.1782 13.0183C17.4421 13.0703 17.7139 12.9832 17.899 12.7877C18.0836 12.5923 18.155 12.3158 18.0886 12.0555C17.9621 11.5635 17.8667 11.064 17.8032 10.5602C19.4373 9.26073 20.6686 8.9276 21.9724 9.44396C22.9467 9.82944 24.0311 9.82944 25.0053 9.44396C26.3088 8.9276 27.5401 9.26073 29.1742 10.5602C29.1107 11.064 29.0157 11.5635 28.8891 12.0555C28.8224 12.3158 28.8941 12.5923 29.0788 12.7877C29.2635 12.9832 29.5356 13.0703 29.7992 13.0183C29.9735 12.9663 30.1617 12.995 30.3123 13.0965C30.6039 13.5404 30.6268 14.1087 30.3719 14.5745C30.1144 15.2164 29.6396 15.6636 29.2172 15.6636C28.8608 15.6632 28.5492 15.9038 28.4592 16.2488C28.2709 16.9709 27.4924 19.1472 26.4224 19.6571C25.5536 20.2186 24.5198 20.4689 23.4903 20.3667C23.3078 20.3667 23.1479 20.3667 23.0062 20.3667C22.7524 20.3689 22.4988 20.3531 22.2471 20.3197C21.6533 20.1863 21.0828 19.9644 20.5553 19.661C20.143 19.4193 19.8009 19.074 19.5635 18.6591C20.3463 18.7563 21.1348 18.8033 21.9237 18.8001C22.3565 18.8001 22.7072 18.4494 22.7072 18.0166C22.7072 17.5841 22.3565 17.2334 21.9237 17.2334ZM14.3816 23.9299C15.5621 23.4186 16.5751 22.955 17.4367 22.5351C17.738 23.5222 18.3181 24.4015 19.1077 25.0666H12.4453C13.042 24.6102 13.6924 24.2286 14.3816 23.9299ZM6.59682 27.4168C6.96867 26.9155 7.55854 26.624 8.18247 26.6333H38.7982C39.4221 26.624 40.012 26.9155 40.3838 27.4168C40.7108 27.8543 40.8077 28.423 40.6438 28.9443L36.4484 42.3001H10.5326L6.33542 28.9426C6.17226 28.4215 6.2698 27.8539 6.59682 27.4168ZM4.29258 35.6416L6.03779 33.2172L8.99071 42.6174C8.97278 42.6282 8.95952 42.6447 8.94159 42.6558C8.78776 42.7483 8.64504 42.8584 8.51631 42.9839C8.38973 43.1137 8.27857 43.2575 8.18498 43.4124C8.15665 43.4569 8.13478 43.5038 8.10645 43.5508C8.04406 43.6713 7.99135 43.7964 7.94975 43.9255C7.93326 43.9779 7.91461 44.0281 7.90134 44.0822C7.85186 44.2676 7.82604 44.4584 7.82353 44.6499C7.82461 44.798 7.83967 44.9457 7.86835 45.0909C7.87696 45.1379 7.89274 45.182 7.90421 45.2272C7.92178 45.2964 7.93397 45.3674 7.95764 45.4334H6.1113C5.80687 45.433 5.53004 45.2566 5.40167 44.9805L3.20823 40.2719C2.93965 38.6458 3.32979 36.9794 4.29258 35.6416Z" fill="#00004D"/>
</svg>
