<svg width="43" height="43" viewBox="0 0 43 43" fill="none" xmlns="http://www.w3.org/2000/svg">
<mask id="mask0_125_192" style="mask-type:luminance" maskUnits="userSpaceOnUse" x="0" y="0" width="43" height="43">
<path d="M42.167 42.1666V0.499634H0.5V42.1666H42.167Z" fill="white" stroke="white"/>
</mask>
<g mask="url(#mask0_125_192)">
<path d="M0.833313 12.9441H13.9079H38.7932" stroke="#00004D" stroke-miterlimit="10" stroke-linecap="round" stroke-linejoin="round"/>
<path d="M7.79218 9.39795C8.88351 9.39795 9.77401 8.51028 9.77401 7.41953C9.77401 6.32879 8.88351 5.44112 7.79218 5.44112C6.70327 5.44112 5.81268 6.32879 5.81268 7.41953C5.81268 8.51028 6.70327 9.39795 7.79218 9.39795Z" stroke="#00004D" stroke-miterlimit="10" stroke-linecap="round" stroke-linejoin="round"/>
<path d="M24.9958 5.44112H32.4508C33.5397 5.44112 34.4303 6.3312 34.4303 7.41953C34.4303 8.50795 33.5397 9.39795 32.4508 9.39795H24.9958C23.9069 9.39795 23.0163 8.50795 23.0163 7.41953C23.0163 6.3312 23.9069 5.44112 24.9958 5.44112Z" stroke="#00004D" stroke-miterlimit="10" stroke-linecap="round" stroke-linejoin="round"/>
<path d="M15.1007 9.39795C16.192 9.39795 17.0825 8.51028 17.0825 7.41953C17.0825 6.32879 16.192 5.44112 15.1007 5.44112C14.0118 5.44112 13.1212 6.32879 13.1212 7.41953C13.1212 8.51028 14.0118 9.39795 15.1007 9.39795Z" stroke="#00004D" stroke-miterlimit="10" stroke-linecap="round" stroke-linejoin="round"/>
<path d="M13.5346 19.354L11.8669 26.3329" stroke="#00004D" stroke-miterlimit="10" stroke-linecap="round" stroke-linejoin="round"/>
<path d="M17.3755 25.7025L19.7353 23.0535C19.8392 22.9379 19.8392 22.749 19.7353 22.6334L17.3755 19.9844" stroke="#00004D" stroke-miterlimit="10" stroke-linecap="round" stroke-linejoin="round"/>
<path d="M8.02607 25.7025L5.66632 23.0535C5.56232 22.9379 5.56232 22.749 5.66632 22.6334L8.02607 19.9844" stroke="#00004D" stroke-miterlimit="10" stroke-linecap="round" stroke-linejoin="round"/>
<path d="M33.7098 23.037C34.6216 23.2401 35.4743 23.5989 36.2421 24.0805L36.9247 23.4006C37.3286 22.9945 37.9924 22.9945 38.3987 23.4006L39.4735 24.4748C39.8797 24.8809 39.8797 25.5443 39.4735 25.948L38.7931 26.6303C39.2727 27.3905 39.627 28.2358 39.8326 29.1376H40.7891C41.3632 29.1376 41.8332 29.6075 41.8332 30.1788V31.7016C41.8332 32.2729 41.3632 32.7427 40.7891 32.7427H39.8278C39.6222 33.6399 39.268 34.4804 38.7931 35.2359L39.4735 35.9158C39.8797 36.3219 39.8797 36.9853 39.4735 37.389L38.3987 38.4656C37.9924 38.8717 37.3286 38.8717 36.9247 38.4656L36.2421 37.7856C35.4838 38.2625 34.6405 38.6167 33.7382 38.8221V39.79C33.7382 40.3638 33.2681 40.8336 32.6965 40.8336H31.1729C30.6012 40.8336 30.1312 40.3638 30.1312 39.79V38.8198C29.2335 38.6167 28.3902 38.2602 27.6319 37.7856L26.9517 38.4656C26.5453 38.8717 25.8817 38.8717 25.4777 38.4656L24.4006 37.389C23.9966 36.9853 23.9966 36.3219 24.4006 35.9158L25.0832 35.2359C24.6061 34.4804 24.2517 33.6399 24.0462 32.7427H23.0801C22.5062 32.7427 22.0383 32.2729 22.0383 31.7016V30.1788C22.0383 29.6075 22.5062 29.1376 23.0801 29.1376H24.0439C24.247 28.2452 24.5967 27.4095 25.0667 26.6563L24.3817 25.9693C23.9754 25.5655 23.9754 24.9021 24.3817 24.4961L25.4564 23.4218C25.8627 23.0157 26.5265 23.0157 26.9304 23.4218L27.6083 24.0971C28.3643 23.6178 29.2052 23.2612 30.1028 23.0511V22.0903C30.1028 21.5166 30.5705 21.0467 31.1445 21.0467H32.6657C33.2397 21.0467 33.7098 21.5166 33.7098 22.0903V23.037Z" stroke="#00004D" stroke-miterlimit="10" stroke-linecap="round" stroke-linejoin="round"/>
<path d="M31.9358 26.6467C34.3074 26.6467 36.2302 28.5686 36.2302 30.9412C36.2302 33.3117 34.3074 35.2334 31.9358 35.2334C29.5619 35.2334 27.639 33.3117 27.639 30.9412C27.639 28.5686 29.5619 26.6467 31.9358 26.6467Z" stroke="#00004D" stroke-miterlimit="10" stroke-linecap="round" stroke-linejoin="round"/>
<path d="M8.86933 32.7427H3.93708C2.23175 32.7427 0.833252 31.0736 0.833252 29.0361V5.5402C0.833252 3.50045 2.22925 1.83362 3.93708 1.83362H7.53233H35.6893C37.3971 1.83362 38.7931 3.50279 38.7931 5.5402V23.7949M23.0801 32.7427H16.3172" stroke="#00004D" stroke-miterlimit="10" stroke-linecap="round" stroke-linejoin="round"/>
<path d="M12.6016 32.7427H12.6193" stroke="#00004D" stroke-miterlimit="10" stroke-linecap="round" stroke-linejoin="round"/>
</g>
</svg>
